<svg xmlns="http://www.w3.org/2000/svg" viewBox="0 0 62.95 69.19"><defs><style>.cls-1{fill:#ffb945;}.cls-2{fill:#7c0101;}</style></defs><title>Asset 1</title><g id="Layer_2" data-name="Layer 2"><g id="Layer_1-2" data-name="Layer 1"><circle class="cls-1" cx="43.51" cy="49" r="18"/><path class="cls-2" d="M495.64,275.06V262a1.51,1.51,0,0,0-.42-1l-14.68-15.41a1.44,1.44,0,0,0-1.05-.45H456.22a7.75,7.75,0,0,0-7.73,7.8v44a7.71,7.71,0,0,0,7.73,7.75h18.37a19.83,19.83,0,1,0,21.05-29.61Zm-14.71-24.89,9.85,10.37h-6.39a3.48,3.48,0,0,1-3.46-3.48Zm-24.71,51.61a4.83,4.83,0,0,1-4.85-4.86v-44a4.88,4.88,0,0,1,4.85-4.92h21.83v9.07a6.35,6.35,0,0,0,6.34,6.36h8.37v11.27c-.44,0-.78-.06-1.16-.06a20.11,20.11,0,0,0-13.15,5H460.14a1.44,1.44,0,1,0,0,2.88h15.63a24,24,0,0,0-2.54,4.47H460.14a1.45,1.45,0,0,0,0,2.89h12.15a19.93,19.93,0,0,0,.87,12H456.22Zm35.37,9.65a16.95,16.95,0,1,1,16.94-16.94A17,17,0,0,1,491.59,311.43Z" transform="translate(-448.49 -245.11)"/><path class="cls-2" d="M460.14,275.25h14.61a1.45,1.45,0,0,0,0-2.89H460.14a1.45,1.45,0,0,0,0,2.89Z" transform="translate(-448.49 -245.11)"/><path class="cls-2" d="M491.11,285.59a1.39,1.39,0,0,0,.35,0,1.08,1.08,0,0,0,.4-.06,3.69,3.69,0,0,1,3.39,3.68,1.45,1.45,0,0,0,2.89,0,6.58,6.58,0,0,0-5.24-6.44v-.93a1.44,1.44,0,1,0-2.88,0v1a6.58,6.58,0,0,0,1.54,13,3.7,3.7,0,1,1-3.69,3.7,1.45,1.45,0,0,0-2.89,0,6.57,6.57,0,0,0,5,6.39v1.49a1.44,1.44,0,0,0,2.88,0V306a6.58,6.58,0,0,0-1.34-13,3.69,3.69,0,0,1-.45-7.35Z" transform="translate(-448.49 -245.11)"/></g></g></svg>