<svg xmlns="http://www.w3.org/2000/svg" viewBox="0 0 67.97 69.19"><defs><style>.cls-1{fill:#fdc040;}.cls-2{fill:#7c0101;}</style></defs><title>Asset 2</title><g id="Layer_2" data-name="Layer 2"><g id="Layer_1-2" data-name="Layer 1"><path class="cls-1" d="M489.5,278.11l3.5-5.5,5-2.5c.67-.17,2.1-.4,2.5,0s6.17,8.17,9,12l2.5,4.5a25.44,25.44,0,0,1-2,3.5,57.3,57.3,0,0,1-6,3c-1,.17-3.1.5-3.5.5s-5.17-6.33-7.5-9.5l-2.62-4.5Z" transform="translate(-445.8 -245.11)"/><path class="cls-1" d="M500.5,293.61c-.4,0-5.17-6.33-7.5-9.5l-2.62-4.5H483.5a20.58,20.58,0,0,0-4,1.5l-3,1.5a10.91,10.91,0,0,0-2.5,2,6.66,6.66,0,0,0-1.5,2.5,3,3,0,0,0,.5,2,3.79,3.79,0,0,0,2,1h3a15.3,15.3,0,0,0,4-1.5,7.09,7.09,0,0,1,1.5,1c.4.4,3.83,2.83,5.5,4l4,4c.67.33,2.1.9,2.5.5s1.83-1.5,2.5-2l1.5-1Z" transform="translate(-445.8 -245.11)"/><path class="cls-1" d="M460.5,299.11c0,.8,1.33,2.33,2,3l3.5,3,2,1.5,2,2c.67.33,2,1.1,2,1.5s2,.83,3,1a18,18,0,0,0,2-1.5c.5-.5.5-.5.5-1.5a6.34,6.34,0,0,0-.5-3c-.5-1-.5-3-1-3.5s-2.5-1.5-2.5-2a10.46,10.46,0,0,0-2-3c-.5-.5-1.5-2.5-2-3s-2-1.5-3-1a35.25,35.25,0,0,0-4.5,3.5A14.67,14.67,0,0,0,460.5,299.11Z" transform="translate(-445.8 -245.11)"/><path class="cls-1" d="M470,250.11c3,4.17,11.6,12.3,22,11.5l-2,6-3,2.5-9.5,3-7.5-2.5-4.5-8,.5-6.5,2.5-4.5Z" transform="translate(-445.8 -245.11)"/><path class="cls-2" d="M478.67,263.09a2.06,2.06,0,0,1-1.62-.58l-.42-.47c-1.06-1.11-2.88.44-1.78,1.88l.27.34a3.81,3.81,0,0,0,.93.75,4.5,4.5,0,0,0,1.46.6v1.91a1.2,1.2,0,0,0,1.19,1.19,1.22,1.22,0,0,0,1.22-1.19V265.6a4.36,4.36,0,0,0,2.21-1.26,3.49,3.49,0,0,0,.91-2.53,3.63,3.63,0,0,0-.41-1.8,2.38,2.38,0,0,0-1-1,9.26,9.26,0,0,0-1.35-.5,11.87,11.87,0,0,0-1.33-.31,2.33,2.33,0,0,1-1-.36.82.82,0,0,1-.42-.72c0-1.42,2.08-1.25,3-.47,1.35,1.13,2.86-.95,1.3-2.13l-.19-.16A4,4,0,0,0,481,254a4.3,4.3,0,0,0-1-.35V252a1.2,1.2,0,1,0-2.39,0v1.63a3.5,3.5,0,0,0-2.11,1.26,3.46,3.46,0,0,0-.77,2.19,3.36,3.36,0,0,0,.57,2,3.05,3.05,0,0,0,1.38,1.11,11.27,11.27,0,0,0,1.62.52,8,8,0,0,1,1.38.44c.38.16.56.39.56.69C480.16,262.67,479.66,263.09,478.67,263.09Z" transform="translate(-445.8 -245.11)"/><path class="cls-2" d="M513,284.14l-11.1-14.22a3.93,3.93,0,0,0-3.11-1.51,3.86,3.86,0,0,0-2.38.8l-7.27,5.54a3.87,3.87,0,0,0-1.5,2.59,3.55,3.55,0,0,0,0,.46,12.86,12.86,0,0,0-8.41,1.81l-.12.08-7-1.08a3.57,3.57,0,0,0,0-.73,3.82,3.82,0,0,0-1.49-2.59l-7.27-5.53a3.94,3.94,0,0,0-5.49.7l-2.65,3.39a1.36,1.36,0,1,0,2.15,1.68l2.65-3.39a1.24,1.24,0,0,1,1.69-.22l7.27,5.54a1.17,1.17,0,0,1,.44.77,1.13,1.13,0,0,1-.23.85l-11.11,14.23a1.23,1.23,0,0,1-1.68.22L449,288a1.14,1.14,0,0,1-.45-.77,1.16,1.16,0,0,1,.24-.86l1.89-2.41a1.36,1.36,0,1,0-2.15-1.68l-1.89,2.42a3.87,3.87,0,0,0,.71,5.47l7.27,5.54a3.93,3.93,0,0,0,2.37.79,4,4,0,0,0,1.41-.26l.94,1.29a3.73,3.73,0,0,0-.18,3.14,4,4,0,0,0,3.47,2.64,4.15,4.15,0,0,0,.2.66,4.06,4.06,0,0,0,3.47,2.59s0,.07,0,.11a4.07,4.07,0,0,0,2.68,3,3.72,3.72,0,0,0,1,.18,3.65,3.65,0,0,0,3.49,2.75,4,4,0,0,0,2.36-.82l1.54,1.44a4.07,4.07,0,0,0,2.76,1.1,3.85,3.85,0,0,0,2.73-1.13,4.7,4.7,0,0,0,1-1.54,4,4,0,0,0,1.11.17,3.53,3.53,0,0,0,2.55-1.09,4.24,4.24,0,0,0,1.06-2h.21a4,4,0,0,0,2.83-1.15,3.91,3.91,0,0,0,1-1.82,4.11,4.11,0,0,0,.78.07,4,4,0,0,0,1-.12,3.66,3.66,0,0,0,2.65-2.68,4.47,4.47,0,0,0-.84-3.66,14.68,14.68,0,0,0,4-4.15,4,4,0,0,0,2.34.76,3.9,3.9,0,0,0,2.38-.8l7.27-5.54a3.87,3.87,0,0,0,.71-5.47ZM463.33,300.3a.93.93,0,0,1-.61.28,1.3,1.3,0,0,1-1-.89.92.92,0,0,1,.24-1.13h0l4.59-4.08a1.76,1.76,0,0,1,1.11-.52,1.16,1.16,0,0,1,1,.75.85.85,0,0,1-.26,1l-.8.73h0l-.08.08Zm3.71,3.25a.91.91,0,0,1-.61.28,1.36,1.36,0,0,1-1.09-.89.72.72,0,0,1,.12-.88l.19-.18h0v0l3.68-3.31.08-.08a1.76,1.76,0,0,1,1.09-.5,1.22,1.22,0,0,1,1.09.8.82.82,0,0,1-.25,1l-.29.25h0Zm4.06,2.95-.06.05-.32.29a.86.86,0,0,1-.89.22,1.34,1.34,0,0,1-.86-.95,1.05,1.05,0,0,1,.43-1l.46-.39,0,0,3-2.62c.71-.63,1.42-.7,1.89-.17a.93.93,0,0,1-.06,1.36l-1.83,1.65-.06.05,0,0-1.67,1.51Zm1.76,3.06a.67.67,0,0,1,0-1l1.82-1.65a2.26,2.26,0,0,1,.4-.28h0a.87.87,0,0,1,1.24.21.65.65,0,0,1-.11.94L475,308.9h0l-.54.49C473.56,310.19,473,309.72,472.86,309.56Zm21.6-7.2a.92.92,0,0,1-.68.68,2.19,2.19,0,0,1-2-.85l-.16-.16-5.14-5.09a1.36,1.36,0,0,0-1.92,1.94l5.14,5.08,0,0a1.22,1.22,0,0,1,.32.8,1.19,1.19,0,0,1-.35.85,1.27,1.27,0,0,1-.9.34h0a1.2,1.2,0,0,1-.8-.29c-.09-.11-.18-.22-.28-.32L484,301.6a1.36,1.36,0,1,0-1.93,1.92l3.56,3.57a.9.9,0,0,0,.15.18l.15.16a1.28,1.28,0,0,1-.3,1.38c-.58.6-1.39.07-2-.47L482,306.82a1.37,1.37,0,0,0-1.87,2l1.23,1.16h0s.07.06.07.2a1.6,1.6,0,0,1-.51,1.06,1.22,1.22,0,0,1-1.7,0L477.92,310l.16-.15a3.37,3.37,0,0,0,.53-4.53,3.7,3.7,0,0,0-1.23-1.11,3.62,3.62,0,0,0-.59-4.09,3.84,3.84,0,0,0-2.41-1.24,3.42,3.42,0,0,0-.23-1,4,4,0,0,0-2.7-2.44,3.63,3.63,0,0,0-.24-1.65,3.86,3.86,0,0,0-3.57-2.49,4.36,4.36,0,0,0-2.92,1.21l-3.48,3.09-.77-1,10.38-13.29,4.74.73-.72.46c-3.84,2.5-4.12,5.4-3.1,7.28a4.67,4.67,0,0,0,4.16,2.37,5.45,5.45,0,0,0,2.14-.45l.05,0,3.6-1.78,2.07,1.89h0l9.59,8.52A2.46,2.46,0,0,1,494.46,302.36Zm-.12-5-8.72-7.76-2.76-2.51a1.35,1.35,0,0,0-1.52-.22l-4.4,2.18a2.17,2.17,0,0,1-2.78-.73c-.56-1,.28-2.45,2.2-3.69l4.28-2.78c2.32-1.51,4.75-1.62,8.09-1.24L498.37,293C497.35,294.84,496.81,295.42,494.34,297.4ZM511,286.68a1.11,1.11,0,0,1-.44.76L503.32,293a1.18,1.18,0,0,1-.72.24,1.22,1.22,0,0,1-1-.46l-11.1-14.22a1.17,1.17,0,0,1,.21-1.63l7.27-5.53a1.23,1.23,0,0,1,1.69.22l11.1,14.22A1.14,1.14,0,0,1,511,286.68Z" transform="translate(-445.8 -245.11)"/><path class="cls-2" d="M471.79,272.79a14.72,14.72,0,1,0,13.27-26.27,14.49,14.49,0,0,0-6.28-1.41,14.73,14.73,0,0,0-7,27.68Zm7-25a11.81,11.81,0,0,1,5.11,1.14,12,12,0,1,1-5.11-1.14Z" transform="translate(-445.8 -245.11)"/><path class="cls-2" d="M452,280a1.4,1.4,0,0,0,.85.3,1.36,1.36,0,0,0,1.07-.51l0,0a1.37,1.37,0,1,0-2.14-1.7v0A1.36,1.36,0,0,0,452,280Z" transform="translate(-445.8 -245.11)"/></g></g></svg>