<svg xmlns="http://www.w3.org/2000/svg" viewBox="0 0 69.19 69.19"><defs><style>.cls-1{fill:#7c0101;}.cls-2{fill:#fdc040;}</style></defs><title>Asset 5</title><g id="Layer_2" data-name="Layer 2"><g id="Layer_1-2" data-name="Layer 1"><path class="cls-1" d="M496.35,310.38A1.35,1.35,0,0,0,495,311.6H484.84l-1.61-9.66,1.79-1.79a1.34,1.34,0,0,0,.39-.95,1.38,1.38,0,0,0-.39-1l-1.58-1.58h2.7a8.86,8.86,0,0,1,7.36,3.93,1.35,1.35,0,1,0,2.24-1.5,11.53,11.53,0,0,0-9.51-5.13,8.13,8.13,0,0,0,2.1-5.47v-2a8.17,8.17,0,1,0-16.34,0v2A8.14,8.14,0,0,0,474.1,294a11.58,11.58,0,0,0-11.48,11.57V313A1.35,1.35,0,0,0,464,314.3h32.38A1.35,1.35,0,0,0,497.7,313v-1.22A1.35,1.35,0,0,0,496.35,310.38Zm-16.17-9.21-2-2,2-2,2,2Zm-.7,3.07a1.32,1.32,0,0,0,.7.19,1.37,1.37,0,0,0,.7-.19l1.22,7.36h-3.84Zm-4.79-17.73a5.47,5.47,0,1,1,10.94,0v2a5.47,5.47,0,1,1-10.94,0Zm-9.37,19a8.88,8.88,0,0,1,8.87-8.87h2.73l-1.58,1.58a1.35,1.35,0,0,0-.4,1,1.31,1.31,0,0,0,.4.95l1.78,1.79-1.6,9.66h-10.2v-6.07Z" transform="translate(-445.57 -245.11)"/><path class="cls-1" d="M473,246.61c.4,0,9.5.33,14,.5v14.5l-14-.5Z" transform="translate(-445.57 -245.11)"/><path class="cls-1" d="M505,247.11l-7,13h15l-7-12.5Z" transform="translate(-445.57 -245.11)"/><path class="cls-2" d="M473,246.61c.4,0,9.5.33,14,.5v14.5l-14-.5Z" transform="translate(-445.57 -245.11)"/><path class="cls-2" d="M505,247.11l-7,13h15l-7-12.5Z" transform="translate(-445.57 -245.11)"/><path class="cls-1" d="M462.85,253.75a8.64,8.64,0,1,0-8.64,8.64A8.66,8.66,0,0,0,462.85,253.75Zm-14.58,0a5.94,5.94,0,1,1,5.94,5.94A5.95,5.95,0,0,1,448.27,253.75Z" transform="translate(-445.57 -245.11)"/><path class="cls-1" d="M472.87,262.39h14.58A1.34,1.34,0,0,0,488.8,261V246.46a1.35,1.35,0,0,0-1.35-1.35H472.87a1.36,1.36,0,0,0-1.35,1.35V261A1.35,1.35,0,0,0,472.87,262.39Zm1.35-14.58H486.1v11.88H474.22Z" transform="translate(-445.57 -245.11)"/><path class="cls-1" d="M514.58,259.83l-7.8-13.51a1.36,1.36,0,0,0-2.34,0l-7.8,13.51a1.36,1.36,0,0,0,1.17,2h15.6a1.36,1.36,0,0,0,1.17-2Zm-14.43-.68,5.46-9.45,5.45,9.45Z" transform="translate(-445.57 -245.11)"/><path class="cls-1" d="M480.16,275.68a1.34,1.34,0,0,0,1.35-1.35v-3.85l.06.07a1.35,1.35,0,0,0,1.1.57,1.32,1.32,0,0,0,.78-.25,1.36,1.36,0,0,0,.32-1.89l-2.51-3.5a1.36,1.36,0,0,0-1.1-.57,1.39,1.39,0,0,0-1.1.57l-2.5,3.5a1.35,1.35,0,1,0,2.2,1.57l.05-.07v3.85A1.35,1.35,0,0,0,480.16,275.68Z" transform="translate(-445.57 -245.11)"/><path class="cls-1" d="M469,286.63a1.35,1.35,0,0,0-1.36-1.35H455.57v-14.8l.05.07a1.35,1.35,0,1,0,2.2-1.57l-2.5-3.5a1.39,1.39,0,0,0-1.1-.57,1.36,1.36,0,0,0-1.1.57l-2.51,3.5a1.35,1.35,0,1,0,2.2,1.57l.05-.07v16.15a1.36,1.36,0,0,0,1.36,1.35h13.46A1.36,1.36,0,0,0,469,286.63Z" transform="translate(-445.57 -245.11)"/><path class="cls-1" d="M507.21,265.48a1.36,1.36,0,0,0-1.1-.57,1.33,1.33,0,0,0-1.1.57L502.5,269a1.35,1.35,0,1,0,2.2,1.57l.06-.07v14.8H492.64a1.35,1.35,0,1,0,0,2.7h13.47a1.36,1.36,0,0,0,1.35-1.35V270.48l.05.07a1.36,1.36,0,0,0,1.1.57,1.35,1.35,0,0,0,1.1-2.14Z" transform="translate(-445.57 -245.11)"/><path class="cls-1" d="M496.35,307a1.35,1.35,0,1,0-1.35-1.35A1.34,1.34,0,0,0,496.35,307Z" transform="translate(-445.57 -245.11)"/></g></g></svg>