<svg xmlns="http://www.w3.org/2000/svg" viewBox="0 0 69.05 69.05"><defs><style>.cls-1{fill:#fdc040;}.cls-2{fill:#7c0101;}</style></defs><title>Asset 4</title><g id="Layer_2" data-name="Layer 2"><g id="Layer_1-2" data-name="Layer 1"><path class="cls-1" d="M459.5,261.61v18.5c3.5-1.17,12.1-1.4,18.5,7,1.5,3.17,3.9,10.5,1.5,14.5l7,4v-30Z" transform="translate(-445.76 -245.11)"/><path class="cls-2" d="M514.11,260.05l-26.89-14.77a1.36,1.36,0,0,0-1.3,0l-10.14,5.56a1.51,1.51,0,0,0-.58.32L459,260.05a1.31,1.31,0,0,0-.7,1.18v17.86a18,18,0,0,0-10.75,25,1.35,1.35,0,1,0,2.42-1.19,15.25,15.25,0,1,1,7,7,1.35,1.35,0,0,0-1.18,2.42,17.79,17.79,0,0,0,7.86,1.83,18,18,0,0,0,16.42-10.65l5.81,3.19a1.33,1.33,0,0,0,1.3,0L514.11,292a1.37,1.37,0,0,0,.7-1.19v-9.37a1.35,1.35,0,1,0-2.7,0V290l-24.19,13.29V276.79l8-4.38v6.95a1.35,1.35,0,0,0,.66,1.16,1.4,1.4,0,0,0,.68.19,1.34,1.34,0,0,0,.65-.17l5.77-3.17a1.35,1.35,0,0,0,.7-1.18v-8.43l7.74-4.25v7.09a1.35,1.35,0,1,0,2.7,0v-9.37A1.34,1.34,0,0,0,514.11,260.05ZM486.57,248l24.09,13.23-7.6,4.17L479,252.17Zm0,26.46-24.09-13.23,7.87-4.33,24.1,13.23Zm10.68-5.87-24.09-13.23,3-1.65,24.09,13.23ZM476.4,283.53a17.84,17.84,0,0,0-12.69-5.26,18.42,18.42,0,0,0-2.69.2v-15l24.2,13.29v26.45L481,301a18,18,0,0,0-4.62-17.42Zm25.27-8.14-3.07,1.69v-6.15l3.07-1.69Z" transform="translate(-445.76 -245.11)"/><path class="cls-2" d="M513.46,274.64a1.36,1.36,0,0,0-1,.39,1.39,1.39,0,0,0-.4,1,1.36,1.36,0,1,0,1.35-1.35Z" transform="translate(-445.76 -245.11)"/><path class="cls-2" d="M459.17,297.56a1.33,1.33,0,0,0,.95-.39,1.35,1.35,0,0,0,0-1.91l-.93-.93h8a3.51,3.51,0,1,1,0,7h-4.72a1.35,1.35,0,0,0,0,2.7h4.72a6.21,6.21,0,1,0,0-12.41h-8l.93-.93a1.35,1.35,0,0,0-1.9-1.91L455,292a1.35,1.35,0,0,0,0,1.91l3.24,3.24A1.35,1.35,0,0,0,459.17,297.56Z" transform="translate(-445.76 -245.11)"/><path class="cls-2" d="M452,309.3a1.34,1.34,0,0,1-1-.48h0a1.35,1.35,0,1,1,1.9.16A1.3,1.3,0,0,1,452,309.3Z" transform="translate(-445.76 -245.11)"/></g></g></svg>