<svg xmlns="http://www.w3.org/2000/svg" viewBox="0 0 69.19 61.88"><defs><style>.cls-1{fill:#fdc040;}.cls-2{fill:#7c0101;}</style></defs><title>Asset 3</title><g id="Layer_2" data-name="Layer 2"><g id="Layer_1-2" data-name="Layer 1"><path class="cls-1" d="M489,250.11H479l-12,12,6,3.5,6-6,12.5,12.5,4.5,5.5,6.5,1,3-5.5v-19l-5-4Z" transform="translate(-445 -248.76)"/><path class="cls-2" d="M509.59,259.5h-2.7v-4.84a5.9,5.9,0,0,0-5.88-5.89H480.47a4.31,4.31,0,0,0-3.09,1.28l-30.66,30.65a5.9,5.9,0,0,0,0,8.33l19.9,19.89a5.9,5.9,0,0,0,8.33,0l19.29-19.3a1.35,1.35,0,0,0,0-1.91,1.36,1.36,0,0,0-1.91,0L473,307a3.19,3.19,0,0,1-4.5,0l-19.89-19.89a3.13,3.13,0,0,1-.94-2.25,3.17,3.17,0,0,1,.94-2.26L479.29,252a1.66,1.66,0,0,1,1.18-.49H501a3.19,3.19,0,0,1,3.19,3.19V266H498.1a1.92,1.92,0,0,1-1.35-.55,5.08,5.08,0,0,0,1.56-1.06,5,5,0,1,0-4.51,1.36,4.62,4.62,0,0,0,4.3,3h6.08v6.48a1.7,1.7,0,0,1-.49,1.18L500,280.06a1.35,1.35,0,0,0,1.91,1.91l3.71-3.71a4.37,4.37,0,0,0,1.28-3.09v-6.48h2.71a4.6,4.6,0,1,0,0-9.19Zm-16.41-.26a2.23,2.23,0,0,1,1.61-.67,2.26,2.26,0,0,1,1.61.67,2.15,2.15,0,0,1,.35.46,4.59,4.59,0,0,0-3.07,3.14,2.28,2.28,0,0,1-.5-3.6ZM509.59,266h-2.7V262.2h2.7a1.89,1.89,0,1,1,0,3.78Z" transform="translate(-445 -248.76)"/><path class="cls-2" d="M466.81,282.85a1.35,1.35,0,0,0,1.3,1,1.18,1.18,0,0,0,.37,0l13.87-3.86a1.35,1.35,0,1,0-.73-2.6l-13.87,3.86A1.35,1.35,0,0,0,466.81,282.85Z" transform="translate(-445 -248.76)"/><path class="cls-2" d="M472.92,284.64a4,4,0,1,0,5.63,0A4,4,0,0,0,472.92,284.64Zm3.72,3.72a1.29,1.29,0,1,1,0-1.81A1.28,1.28,0,0,1,476.64,288.36Z" transform="translate(-445 -248.76)"/><path class="cls-2" d="M479.22,276.59a4,4,0,0,0,0-5.63,4,4,0,0,0-5.63,0,4,4,0,1,0,5.63,5.63Zm-3.72-3.72a1.28,1.28,0,1,1,0,1.81A1.28,1.28,0,0,1,475.5,272.87Z" transform="translate(-445 -248.76)"/><path class="cls-2" d="M458.44,280.06a1.35,1.35,0,0,0-1.91,0l-3.84,3.84a1.37,1.37,0,0,0-.4,1,1.35,1.35,0,0,0,.4.95L469.83,303a1.35,1.35,0,0,0,.95.39,1.37,1.37,0,0,0,1-.39l25.62-25.62a1.35,1.35,0,0,0,0-1.91l-17.14-17.14a1.34,1.34,0,0,0-1.91,0l-14.14,14.14a1.36,1.36,0,0,0,0,1.91,1.35,1.35,0,0,0,1.91,0l13.19-13.18,15.22,15.22-23.71,23.71-15.22-15.22,2.88-2.89A1.35,1.35,0,0,0,458.44,280.06Z" transform="translate(-445 -248.76)"/><path class="cls-2" d="M497.11,283.48a1.37,1.37,0,0,0-.95.4,1.34,1.34,0,0,0,0,1.91,1.37,1.37,0,0,0,.95.4,1.39,1.39,0,0,0,1-.4,1.36,1.36,0,0,0,0-1.91A1.39,1.39,0,0,0,497.11,283.48Z" transform="translate(-445 -248.76)"/><path class="cls-2" d="M462.26,278.15a1.35,1.35,0,1,0-1.91-1.91,1.36,1.36,0,0,0,0,1.91,1.34,1.34,0,0,0,1.91,0Z" transform="translate(-445 -248.76)"/></g></g></svg>